# xmcd
#
# Track frame offsets: 
#        150
#        2911
#        10696
#        14467
#        22938
#        25310
#        37539
#        48786
#        54960
#        57257
#        69612
#        80208
#        84289
#        93678
#
# Disc length: 1292 seconds
#
# Revision: 0
# Processed by: cddbd v1.5.2PL0 Copyright (c) Steve Scherf et al.
# Submitted via: ExactAudioCopyFreeDBPlugin 1.0
#
DISCID=9b050a0e
DTITLE=J.D. Wilkes with Charlie Stamper - Cattle in the Cane
DYEAR=2015
DGENRE=Rock
TTITLE0=Old Smokey
TTITLE1=Soldier's Joy
TTITLE2=Wabash Blues
TTITLE3=Young Edward
TTITLE4=Cattle in the Cane (solo)
TTITLE5=Cattle in the Cane (with Charlie)
TTITLE6=Red Rocking Chair
TTITLE7=Buck Creek Girls
TTITLE8=Hook and Line
TTITLE9=Glory to the Meeting House
TTITLE10=Pretty Polly
TTITLE11=Pretty Fair Miss in the Garden
TTITLE12=Billy in the Low Ground
TTITLE13=Young Hunting
EXTD=
EXTT0=
EXTT1=
EXTT2=
EXTT3=
EXTT4=
EXTT5=
EXTT6=
EXTT7=
EXTT8=
EXTT9=
EXTT10=
EXTT11=
EXTT12=
EXTT13=
PLAYORDER=
